<svg width="50" height="48" viewBox="0 0 50 48" fill="none" xmlns="http://www.w3.org/2000/svg">
<path d="M49.8731 41.1302C49.6533 40.1165 48.6192 39.4657 47.5629 39.6768C46.5068 39.8878 45.829 40.8808 46.0489 41.8945C46.1756 42.4785 46.0247 43.077 45.6353 43.5369C45.4097 43.8033 44.9067 44.25 44.0729 44.25H5.92701C5.09322 44.25 4.59019 43.8032 4.36461 43.5369C3.97506 43.0771 3.82427 42.4785 3.95093 41.8945C5.97789 32.5481 14.5653 25.7207 24.4822 25.4904C24.6539 25.4968 24.8265 25.5 24.9999 25.5C25.174 25.5 25.3472 25.4967 25.5197 25.4903C32.5052 25.6512 38.9618 29.0479 42.8719 34.646C43.4726 35.5061 44.6857 35.7358 45.5818 35.1592C46.4777 34.5825 46.7171 33.4178 46.1163 32.5577C42.9115 27.9692 38.2579 24.6326 32.9519 22.9561C36.1853 20.6284 38.2812 16.9197 38.2812 12.75C38.2812 5.71969 32.3233 0 24.9999 0C17.6766 0 11.7187 5.71969 11.7187 12.75C11.7187 16.9223 13.8171 20.6329 17.0539 22.9604C14.0883 23.8977 11.3056 25.3562 8.87007 27.2794C4.40406 30.806 1.29889 35.7249 0.12672 41.1302C-0.240662 42.824 0.199474 44.5636 1.33404 45.9029C2.46305 47.2357 4.13717 48 5.92701 48H44.0728C45.8627 48 47.5368 47.2357 48.6657 45.9029C49.8005 44.5636 50.2405 42.824 49.8731 41.1302ZM15.6249 12.75C15.6249 7.78734 19.8305 3.75 24.9999 3.75C30.1694 3.75 34.3749 7.78734 34.3749 12.75C34.3749 17.5598 30.4242 21.5005 25.4744 21.7386C25.3165 21.7358 25.1583 21.7343 24.9999 21.7343C24.8423 21.7343 24.6847 21.7358 24.5273 21.7387C19.5766 21.5016 15.6249 17.5605 15.6249 12.75Z" fill="#525252"/>
</svg>
