<svg width="55" height="55" viewBox="0 0 55 55" fill="none" xmlns="http://www.w3.org/2000/svg">
<g clip-path="url(#clip0)">
<path d="M54.6824 11.491C54.3676 11.0398 53.861 10.7609 53.3106 10.7374L19.1936 9.2668C18.2148 9.22397 17.3968 9.9797 17.3549 10.954C17.3133 11.928 18.0678 12.7509 19.042 12.7928L50.8492 14.1639L44.5953 33.6767H16.7644L11.7363 6.29927C11.6258 5.69924 11.2138 5.19867 10.6457 4.97576L2.41054 1.74053C1.50293 1.38519 0.478754 1.83099 0.122306 2.7375C-0.233527 3.6445 0.212157 4.66929 1.11928 5.02573L8.44161 7.90231L13.5584 35.7603C13.7126 36.5977 14.4425 37.206 15.2944 37.206H16.1432L14.205 42.5897C14.0427 43.0406 14.1096 43.5415 14.3857 43.9332C14.6614 44.3251 15.1098 44.5583 15.5884 44.5583H16.9479C16.1055 45.4958 15.5884 46.7302 15.5884 48.0877C15.5884 51.007 17.9638 53.3817 20.8825 53.3817C23.8011 53.3817 26.1765 51.007 26.1765 48.0877C26.1765 46.7303 25.6594 45.4958 24.8172 44.5583H36.3595C35.5168 45.4958 34.9998 46.7302 34.9998 48.0877C34.9998 51.007 37.3746 53.3817 40.2939 53.3817C43.2133 53.3817 45.5879 51.007 45.5879 48.0877C45.5879 46.7303 45.071 45.4958 44.2288 44.5583H45.8821C46.6944 44.5583 47.3527 43.8999 47.3527 43.0878C47.3527 42.2754 46.6943 41.6172 45.8821 41.6172H17.6808L19.2688 37.2055H45.882C46.6494 37.2055 47.3284 36.7098 47.5622 35.9796L54.915 13.0386C55.0839 12.515 54.9973 11.9425 54.6824 11.491ZM20.8826 50.4411C19.5849 50.4411 18.5296 49.3859 18.5296 48.0883C18.5296 46.7906 19.5849 45.7353 20.8826 45.7353C22.1803 45.7353 23.2354 46.7906 23.2354 48.0883C23.2354 49.3859 22.1803 50.4411 20.8826 50.4411ZM40.2939 50.4411C38.9962 50.4411 37.941 49.3859 37.941 48.0883C37.941 46.7906 38.9962 45.7353 40.2939 45.7353C41.5915 45.7353 42.6467 46.7906 42.6467 48.0883C42.6467 49.3859 41.5915 50.4411 40.2939 50.4411Z" fill="#525252"/>
</g>
<defs>
<clipPath id="clip0">
<rect width="55" height="55" fill="white"/>
</clipPath>
</defs>
</svg>
