<svg width="30" height="30" viewBox="0 0 30 30" fill="none" xmlns="http://www.w3.org/2000/svg">
<path d="M15.0001 0.062439C6.71586 0.062439 0 6.77829 0 15.0625C0 22.4925 5.40783 28.6458 12.4984 29.8373V18.192H8.87992V14.0013H12.4984V10.9112C12.4984 7.32584 14.6882 5.37203 17.8871 5.37203C19.4191 5.37203 20.7357 5.48619 21.1179 5.53647V9.28412L18.8993 9.2852C17.16 9.2852 16.8247 10.1115 16.8247 11.3245V13.9991H20.9748L20.4335 18.1898H16.8247V29.9375C24.2463 29.0343 30 22.7242 30 15.0582C30 6.77829 23.2841 0.062439 15.0001 0.062439Z" fill="white"/>
</svg>
