<?xml version="1.0" standalone="no"?>
<!DOCTYPE svg PUBLIC "-//W3C//DTD SVG 20010904//EN"
 "http://www.w3.org/TR/2001/REC-SVG-20010904/DTD/svg10.dtd">
<svg version="1.0" xmlns="http://www.w3.org/2000/svg"
 width="683.000000pt" height="619.000000pt" viewBox="0 0 683.000000 619.000000"
 preserveAspectRatio="xMidYMid meet">
<metadata>
Created by potrace 1.16, written by Peter Selinger 2001-2019
</metadata>
<g transform="translate(0.000000,619.000000) scale(0.100000,-0.100000)"
fill="#525252" stroke="none">
<path d="M1620 5809 c-334 -75 -654 -249 -909 -494 -282 -271 -446 -630 -467
-1021 -31 -598 304 -1328 986 -2149 305 -366 962 -1005 1445 -1406 106 -88
490 -384 588 -454 68 -47 69 -48 101 -33 65 32 550 415 851 673 927 797 1580
1565 1938 2280 126 253 207 483 249 705 33 171 33 472 0 619 -53 236 -152 448
-291 621 -229 286 -583 529 -896 616 -224 62 -466 80 -675 50 -321 -47 -648
-178 -986 -396 -71 -46 -149 -95 -174 -108 l-46 -25 -164 102 c-448 280 -682
376 -1038 425 -159 22 -402 20 -512 -5z m403 -405 c343 -27 731 -210 1161
-547 81 -65 151 -117 155 -117 4 0 36 24 72 53 371 303 692 485 999 566 135
35 242 51 348 51 349 0 663 -145 938 -433 227 -237 310 -441 308 -757 -1 -179
-29 -339 -91 -520 -143 -421 -465 -923 -902 -1405 -489 -539 -955 -974 -1544
-1444 l-129 -102 -36 27 c-74 55 -301 241 -479 391 -547 460 -1169 1099 -1509
1548 -541 716 -758 1376 -603 1838 58 172 143 302 309 467 200 200 423 324
676 374 130 26 138 26 327 10z"/>
</g>
</svg>
