<svg width="50" height="50" viewBox="0 0 50 50" fill="none" xmlns="http://www.w3.org/2000/svg">
<path d="M20.6089 41.1794C9.25565 41.1794 0.019165 31.9429 0.019165 20.5897C0.019165 9.23648 9.25565 0 20.6089 0C31.9621 0 41.1986 9.23648 41.1986 20.5897C41.1986 31.9429 31.9621 41.1794 20.6089 41.1794ZM20.6089 3.90326C11.4079 3.90326 3.92243 11.3887 3.92243 20.5897C3.92243 29.7907 11.4079 37.2761 20.6089 37.2761C29.8098 37.2761 37.2953 29.7907 37.2953 20.5897C37.2953 11.3887 29.8098 3.90326 20.6089 3.90326ZM49.4094 49.4284C50.1715 48.6662 50.1715 47.4304 49.4094 46.6683L40.6758 37.9347C39.9136 37.1725 38.6778 37.1725 37.9157 37.9347C37.1536 38.6969 37.1536 39.9327 37.9157 40.6948L46.6493 49.4284C47.0303 49.8094 47.5299 49.9999 48.0294 49.9999C48.5289 49.9999 49.0282 49.8094 49.4094 49.4284Z" fill="#525252"/>
</svg>
